<svg height="316.22776601683796" id="Layer_1" style="enable-background:new 0 0 316 316;" version="1.1" viewBox="0.0 0.0 316.0 316.0" width="316.22776601683796" x="0px" xml:space="preserve" xmlns="http://www.w3.org/2000/svg" xmlns:xlink="http://www.w3.org/1999/xlink" y="0px">
<style type="text/css">
	.st0{fill:#EC1E24;stroke:#231F20;stroke-width:3;stroke-miterlimit:10;}
	.st1{fill:none;stroke:#AC1F24;stroke-width:3;stroke-linecap:round;stroke-linejoin:round;}
	.st2{fill:#AC1F25;stroke:#AC1F24;stroke-miterlimit:10;}
	.st3{fill:#AC1F25;stroke:#AC1F24;stroke-linecap:round;stroke-linejoin:round;}
	.st4{fill:none;stroke:#AC1F24;stroke-width:3;stroke-linecap:round;stroke-linejoin:bevel;}
	.st5{fill:#AC1F25;stroke:#AC1F24;stroke-width:3;stroke-linecap:round;stroke-linejoin:round;}
</style>
<path class="st0" d="M152.8,312.8"/>
<path class="st0" d="M157.8,312.8"/>
<path class="st0" d="M162.9,312.8"/>
<g>
	<line class="st1" x1="40.4" x2="275.3" y1="159.7" y2="159.7"/>
	<line class="st1" x1="40.8" x2="274.9" y1="148.1" y2="148.1"/>
	<line class="st1" x1="42.4" x2="273.3" y1="136.5" y2="136.5"/>
	<line class="st1" x1="45.2" x2="270.5" y1="124.9" y2="124.9"/>
	<line class="st1" x1="49.3" x2="266.4" y1="113.3" y2="113.3"/>
	<line class="st1" x1="54.8" x2="260.8" y1="101.7" y2="101.7"/>
	<line class="st1" x1="74" x2="253.5" y1="90.2" y2="90.2"/>
	<line class="st1" x1="74" x2="244.1" y1="78.7" y2="78.7"/>
	<line class="st1" x1="83.9" x2="231.8" y1="67.1" y2="67.1"/>
	<line class="st1" x1="101.1" x2="214.6" y1="55.5" y2="55.5"/>
	<line class="st1" x1="259.4" x2="259.4" y1="99.3" y2="159.7"/>
	<line class="st1" x1="247.8" x2="247.8" y1="82.8" y2="159.7"/>
	<line class="st1" x1="236.2" x2="236.2" y1="70.8" y2="159.7"/>
	<line class="st1" x1="224.7" x2="224.7" y1="61.7" y2="159.1"/>
	<line class="st1" x1="213.1" x2="213.1" y1="54.5" y2="159.4"/>
	<line class="st1" x1="201.5" x2="201.5" y1="49.2" y2="159.7"/>
	<line class="st1" x1="189.9" x2="189.9" y1="45.2" y2="159.7"/>
	<line class="st1" x1="178.3" x2="178.3" y1="42.6" y2="159.7"/>
	<line class="st1" x1="166.7" x2="166.7" y1="40.9" y2="159.7"/>
	<line class="st1" x1="155.1" x2="155.1" y1="40.9" y2="159.7"/>
	<line class="st1" x1="143.5" x2="143.5" y1="41.7" y2="159.7"/>
	<line class="st1" x1="131.9" x2="131.9" y1="43.9" y2="159.7"/>
	<line class="st1" x1="120.3" x2="120.3" y1="47" y2="159.7"/>
	<line class="st1" x1="108.7" x2="108.7" y1="51.5" y2="159.7"/>
	<line class="st1" x1="74" x2="74" y1="76.1" y2="159.7"/>
	<line class="st1" x1="62.4" x2="62.4" y1="88.4" y2="159.7"/>
	<line class="st1" x1="50.8" x2="50.8" y1="113.3" y2="159.7"/>
	<line class="st1" x1="97.1" x2="97.1" y1="57.8" y2="159.7"/>
	<line class="st1" x1="85.5" x2="85.5" y1="65.7" y2="159.7"/>
	<line class="st1" x1="157.8" x2="208.1" y1="264.6" y2="264.6"/>
	<line class="st1" x1="157.8" x2="227.5" y1="253" y2="253"/>
	<line class="st1" x1="157.9" x2="241" y1="241.4" y2="241.4"/>
	<line class="st1" x1="157.9" x2="251.2" y1="229.8" y2="229.8"/>
	<line class="st1" x1="76.6" x2="259" y1="218.2" y2="218.2"/>
	<line class="st1" x1="51" x2="265" y1="206.6" y2="206.6"/>
	<line class="st1" x1="250.6" x2="250.6" y1="206.6" y2="230.4"/>
	<line class="st1" x1="239" x2="239" y1="206.6" y2="243.2"/>
	<line class="st1" x1="227.5" x2="227.5" y1="206.6" y2="253"/>
	<line class="st1" x1="215.9" x2="215.9" y1="206.6" y2="260.5"/>
	<line class="st1" x1="204.3" x2="204.3" y1="206.6" y2="266.2"/>
	<line class="st1" x1="192.7" x2="192.7" y1="206.6" y2="270.5"/>
	<line class="st1" x1="181.1" x2="181.1" y1="206.6" y2="273.5"/>
	<line class="st1" x1="169.5" x2="169.5" y1="206.6" y2="275.1"/>
	<line class="st1" x1="50.8" x2="74" y1="159.7" y2="159.7"/>
</g>
<path class="st2" d="M163.1,313.9l3.9-15.4c3.1-0.2,6.3-0.5,9.3-0.9l6.8,14.3c1.7-0.3,3.3-0.6,5-0.9c1.7-0.3,3.3-0.7,5-1l0.8-15.8  c3-0.8,6-1.8,9-2.7l9.5,12.7c1.6-0.6,3.1-1.2,4.7-1.9s3.1-1.3,4.7-2l-2.3-15.7c2.8-1.3,5.6-2.9,8.3-4.5l11.8,10.7  c1.4-0.9,2.8-1.8,4.2-2.7c1.4-0.9,2.8-1.9,4.1-2.9l-5.3-15c2.5-2,5-3.9,7.2-6l13.7,8.1c1.2-1.1,2.4-2.3,3.6-3.5s2.4-2.4,3.5-3.6  l-8.1-13.7c2.1-2.4,4-4.8,6-7.2l15,5.3c0.9-1.3,2-2.8,2.9-4.1c0.9-1.4,1.9-2.8,2.7-4.2l-10.7-11.8c1.6-2.7,3.1-5.5,4.5-8.3l15.7,2.3  c0.7-1.6,1.3-3.1,2-4.7s1.2-3.1,1.9-4.7l-12.7-9.5c1-3,2-6,2.7-9l15.8-0.8c0.4-1.7,0.7-3.3,1-5c0.3-1.7,0.6-3.3,0.9-5l-14.3-6.8  c0.4-3.1,0.7-6.2,0.9-9.3l15.4-3.9c0.1-1.7,0.1-3.3,0.1-5.1c0-1.7,0-3.4-0.1-5.1l-15.4-3.9c-0.2-3.1-0.5-6.3-0.9-9.3l14.3-6.8  c-0.3-1.7-0.6-3.3-0.9-5c-0.3-1.7-0.7-3.3-1-5l-15.8-0.8c-0.8-3-1.8-6-2.7-9l12.7-9.5c-0.6-1.6-1.2-3.1-1.9-4.7  c-0.6-1.6-1.3-3.1-2-4.7L283,98c-1.3-2.8-2.9-5.6-4.5-8.3l10.7-11.8c-0.9-1.4-1.8-2.8-2.7-4.2c-0.9-1.4-1.9-2.8-2.9-4.1l-15,5.3  c-2-2.5-3.9-5-6-7.2l8.1-13.7c-1.1-1.2-2.3-2.4-3.5-3.6c-1.2-1.2-2.4-2.4-3.6-3.5l-13.7,8.1c-2.4-2.1-4.8-4-7.2-6l5.3-15  c-1.3-0.9-2.8-2-4.1-2.9c-1.4-0.9-2.8-1.9-4.2-2.7l-11.8,10.7c-2.7-1.6-5.5-3.1-8.3-4.5l2.3-15.7c-1.6-0.7-3.1-1.3-4.7-2  s-3.1-1.2-4.7-1.9l-9.5,12.7c-3-1-6-2-9-2.7l-0.8-15.8c-1.7-0.4-3.3-0.7-5-1c-1.7-0.3-3.3-0.6-5-0.9l-6.8,14.3  c-3.1-0.4-6.2-0.7-9.3-0.9l-3.9-15.4C161.4,5,159.8,5,158,5c-1.7,0-3.4,0-5.1,0.1L149,20.4c-3.1,0.2-6.3,0.5-9.3,0.9L132.8,7  c-1.7,0.3-3.3,0.6-5,0.9c-1.7,0.3-3.3,0.7-5,1V8.9l-0.8,15.9c-3,0.8-6,1.8-9,2.7l-9.5-12.7c-1.6,0.6-3.1,1.2-4.7,1.9  c-1.6,0.6-3.1,1.3-4.7,2l2.3,15.7c-2.8,1.3-5.6,2.9-8.3,4.5L76.4,28.2c-1.4,0.9-2.8,1.8-4.2,2.7c-1.4,0.9-2.8,1.9-4.1,2.9l5.3,14.9  c-2.5,2-5,3.9-7.2,6l-13.7-8.1c-1.2,1.1-2.4,2.3-3.6,3.5c-1.2,1.2-2.4,2.4-3.5,3.6l8.2,13.7c-2.1,2.4-4,4.8-6,7.2l-15-5.3  c-0.9,1.3-2,2.8-2.9,4.1c-0.9,1.4-1.9,2.8-2.7,4.2l10.7,11.8c-1.6,2.7-3.1,5.5-4.5,8.3l-15.7-2.3c-0.7,1.6-1.3,3.1-2,4.7  c-0.6,1.6-2,4.6-2,4.6l12.7,9.5c-1,3-2,6-2.7,9l-15.8,0.8c-0.4,1.7-0.7,3.3-1,5c-0.3,1.7-1,5-1,5l14.4,6.8c-0.4,3.1-0.7,6.2-0.9,9.3  l-15.4,4.2c-0.1,1.7-0.1,3.3-0.1,5.1c0,1.7,0,5.1,0,5.1l15.4,3.9c0.2,3.1,0.5,6.3,0.9,9.3l-14.3,6.8c0.3,1.7,0.6,3.3,0.9,5  s0.7,3.3,1,5l15.8,0.8c0.8,3,1.8,6,2.7,9l-12.7,9.5c0.6,1.6,1.2,3.1,1.9,4.7c0.6,1.6,1.9,4.7,1.9,4.7l15.8-2.3  c1.3,2.8,2.9,5.6,4.5,8.3l-10.7,11.8c0.9,1.4,1.8,2.8,2.7,4.2c0.9,1.4,2.8,4.1,2.8,4.1l15-5.3c2,2.5,3.9,5,6,7.2l-8.1,13.7  c1.1,1.2,2.3,2.4,3.5,3.6s2.4,2.4,3.6,3.5l13.7-8.2c2.4,2.1,4.8,4,7.2,6l-5.3,15c1.3,0.9,2.8,2,4.1,2.9c1.4,0.9,2.8,1.9,4.2,2.7  L88,280c2.7,1.6,5.5,3.1,8.3,4.5l-2.1,15.7c1.6,0.7,3.1,1.3,4.7,2c1.6,0.6,3.1,1.2,4.7,1.9l9.4-12.6c3,1,6,2,9,2.7l0.8,15.8  c1.7,0.4,3.3,0.7,5,1c1.7,0.3,3.3,0.6,5,0.9l6.8-14.3c3.1,0.4,6.2,0.7,9.3,0.9l3.9,15.4 M74.1,160.8V77.2  c21.3-21.7,51-35.3,83.9-35.3c64.9,0,117.5,52.6,117.5,117.5S222.9,276.9,158,276.9v0.1v-69.1l-0.1,0.1h-34.8v-0.1V231l0,0h-11.6  v-23.2H88.3v-0.1v23.2l0,0H76.7l0,0v-23.2l0,0H50.9v-0.1c-6.6-14.7-10.4-31.2-10.4-48.3c0-25.5,8.2-49.2,21.9-68.4v23.5H50.9v46.4"/>
<polygon class="st3" points="108.7,136.5 97.1,136.5 97.1,124.9 85.5,124.9 85.5,159.7 108.7,159.7 "/>
<polygon class="st3" points="131.9,101.7 143.5,101.7 143.5,78.7 155.1,78.7 155.1,159.7 120.3,159.7 120.3,67.1 131.9,67.1 "/>
<rect class="st1" height="31.9" width="212.8" x="51" y="168"/>
<g>
	<rect class="st4" height="31.9" width="35.7" x="180.2" y="168"/>
	<line class="st4" x1="198.1" x2="198.1" y1="168" y2="199.9"/>
</g>
<polyline class="st1" points="263.8,178.3 256,178.3 254.1,182 252.2,178.3 250.2,174.7 248.3,178.3 246.4,182 244.4,178.3   242.5,174.7 240.5,178.3 238.6,182 236.7,178.3 234.7,174.7 232.7,178.3 230.9,178.3 226.9,178.3 211.5,178.3 147.5,178.3   145.6,182 143.6,178.3 141.6,174.7 139.8,178.3 137.8,182 135.8,178.3 134,174.7 132,178.3 130.1,182 128.1,178.3 126.2,174.7   124.3,178.3 87.4,178.3 85.4,182 83.6,178.3 81.6,174.7 79.6,178.3 77.8,182 75.8,178.3 73.9,174.7 71.9,178.3 70,182 68.1,178.3   66.1,174.7 64.1,178.3 50.6,178.3 "/>
<polyline class="st1" points="263.8,188.9 246.4,188.9 244.4,192.5 242.5,188.9 240.5,185.3 238.6,188.9 236.7,192.5 234.7,188.9   232.7,185.3 230.9,188.9 228.9,192.5 226.9,188.9 225.1,185.3 223.1,188.9 217.3,188.9 203.7,188.9 172.7,188.9 170.7,192.5   168.9,188.9 166.9,185.3 164.9,188.9 163,192.5 161.1,188.9 159.1,185.3 157.2,188.9 155.3,192.5 153.3,188.9 151.4,185.3   149.4,188.9 112.7,188.9 110.7,192.5 108.7,188.9 106.8,185.3 104.9,188.9 102.9,192.5 101,188.9 99.1,185.3 97.1,188.9 95.2,192.5   93.2,188.9 91.3,185.3 89.4,188.9 50.6,188.9 "/>
<rect class="st5" height="2.7" width="35.7" x="180" y="199.9"/>
<rect class="st5" height="2.7" width="35.7" x="180.2" y="165.3"/>
</svg>