<?xml version="1.0" encoding="UTF-8"?>
<svg xmlns="http://www.w3.org/2000/svg" version="1.1" width="238.425" height="300">
  <defs id="defs4">
    <style id="style2">.cls-1{fill:#b79542}.cls-2{fill:#2f1b72}.cls-3{fill:#fdfcfb}.cls-4{fill:#d9342d}.cls-5{fill:#fff}.cls-6{fill:#fffdfd}</style>
  </defs>
  <path d="M28.171 0h184.18v216.377a25.93 25.93 0 0 1-6.03 17.92 27.178 27.178 0 0 1-21.427 10.04c-14.32.11-28.69 0-43.01.059a24.63 24.63 0 0 0-19.788 11.89c-.9 1.81-1.52 3.72-2.37 5.53-1.97-6.88-6.879-12.91-13.588-15.62-4.247-1.919-9.13-1.86-13.7-1.8H54.721c-8.876.204-17.47-4.68-22.21-12.069a25.768 25.768 0 0 1-4.34-15.39q-.093-83.469 0-166.99c0-16.688-.11-33.318 0-49.947z" class="cls-1" id="path3204" style="fill:#b79542;stroke-width:.84930497"/>
  <path d="M33.242 3.95q57.175-.094 114.444 0c19.848.05 39.637-.12 59.536.05q-.085 55.995 0 111.964c-13.589.17-27.229.06-40.869.119-44.376-.06-88.684.11-133.111-.06z" class="cls-2" id="path3206" style="fill:#2f1b72;stroke-width:.84930497"/>
  <path d="M171.653 49.667c1.18.56 2.361 1.02 3.49 1.699a14.15 14.15 0 0 1 1.351 2.99c.459 1.24-.56 2.31-1.52 2.76 1.24-1.911-.39-3.66-1.24-5.41-.68.06-1.35.11-2.03.11 0-.67 0-1.41-.051-2.14z" class="cls-2" id="path3226" style="fill:#2f1b72;stroke-width:.84930497"/>
  <path d="M93.228 54.797c1.02-.68 2.03-1.35 3.1-2.09 3.397 3.398 6.795 6.88 10.192 10.32-.68 1.02-1.36 2.03-2.03 3.1-3.762-3.771-7.593-7.525-11.262-11.33z" class="cls-3" id="path3228" style="fill:#fdfcfb;stroke-width:.84930497"/>
  <path d="M144.025 52.827a22.532 22.532 0 0 1 2.09 2.03c-3.56 3.89-7.5 7.499-11.169 11.33-.73-1.02-1.41-2.09-2.08-3.211q5.656-5.087 11.16-10.15z" class="cls-3" id="path3230" style="fill:#fdfcfb;stroke-width:.84930497"/>
  <path d="M84.064 77.287c5.41 0 10.94 0 16.35-.06.059 1.011.059 2.03.11 3.1-5.461.11-10.93-.06-16.46.06a26.957 26.957 0 0 0 0-3.1z" class="cls-3" id="path3234" style="fill:#fdfcfb;stroke-width:.84930497"/>
  <path d="M139.906 77.287c5.19-.06 10.32-.06 15.508 0v3.1h-15.508z" class="cls-3" id="path3236" style="fill:#fdfcfb;stroke-width:.84930497"/>
  <path d="M104.388 91.445c.68.73 1.41 1.41 2.149 2.14-3.5 3.66-6.795 7.5-10.192 11.22-1.01-.68-2.03-1.351-3.16-2.03 3.619-3.831 7.602-7.44 11.203-11.33z" class="cls-3" id="path3238" style="fill:#fdfcfb;stroke-width:.84930497"/>
  <path d="M132.865 93.525c.671-.67 1.41-1.35 2.081-2.03 3.78 3.67 7.44 7.5 11.22 11.169-.672.79-1.351 1.52-2.081 2.25-3.729-3.847-7.5-7.61-11.22-11.389z" class="cls-3" id="path3240" style="fill:#fdfcfb;stroke-width:.84930497"/>
  <path d="M118.546 102.834c1.07-.06 2.14-.06 3.21-.06v11.28c-1.07 0-2.14 0-3.159-.06 0-3.72 0-7.44-.051-11.16z" class="cls-3" id="path3242" style="fill:#fdfcfb;stroke-width:.84930497"/>
  <path d="M33.242 120.024c27.568-.051 55.086 0 82.654 0 .62.11 2.03-.28 1.699.85v126.333a29.19 29.19 0 0 0-12.46-6.794c-4.739-1.35-9.758-.9-14.659-.96H54.22a21.233 21.233 0 0 1-15.56-6.87 22.218 22.218 0 0 1-5.418-14.66z" class="cls-2" id="path3244" style="fill:#2f1b72;stroke-width:.84930497"/>
  <path d="M122.826 120.024c28.079 0 56.267-.11 84.336.06-.05 32.587 0 65.226-.05 97.814a21.114 21.114 0 0 1-6.65 15.448 23.118 23.118 0 0 1-15.11 6.03c-14.659.052-29.377-.059-44.036.052-6.88.17-13.42 3.27-18.49 7.839V120.024z" class="cls-2" id="path3246" style="fill:#2f1b72;stroke-width:.84930497"/>
  <path d="m72.93 138.437 6.09 22.158 9.172-17.555 1.146 22.574 9.08-10.718s-4.247 22.464-8.12 29.097c-3.04 5.946-7.27 12.23-14.32 13.75.06 2.37 0 4.63.06 6.99-1.698 0-3.397.06-5.096 0 0-2.42.06-4.73-.11-7.16-4.9-.848-8.57-4.62-11.27-8.492-4.46-6.88-6.94-14.71-8.74-22.66l-2.429-11.847 9.25 11.108s1.12-19.678 1.07-23.058c1.18 1.58 9.02 18.039 9.02 18.039z" class="cls-1" id="path3248" style="fill:#b79542;stroke-width:.84930497"/>
  <path d="M73.023 148.102c.765 1.087 4.62 19.22 5.64 29.029.05 1.359.56 2.939-.4 4.12-1.919 2.93-3.49 6.089-5.359 9.019a46.941 46.941 0 0 0-4.39-8.91c-1.02-1.35-.51-3.15-.34-4.62.756-7.61 4.85-28.638 4.85-28.638z" class="cls-3" id="path3250" style="fill:#fdfcfb;stroke-width:.84930497"/>
  <path d="m60.284 150.87 6.361 14.031s-.739 7.89-1.07 11.84c-1.81-2.65-3.5-5.47-5.869-7.644.034-.34.578-18.226.578-18.226z" class="cls-3" id="path3252" style="fill:#fdfcfb;stroke-width:.84930497"/>
  <path d="m86.238 151.176.85 17.708a79.053 79.053 0 0 0-5.75 8c-.17-3.49-.909-6.879-1.079-10.37-.28-2.513 5.98-15.338 5.98-15.338z" class="cls-3" id="path3254" style="fill:#fdfcfb;stroke-width:.84930497"/>
  <path d="M150.845 158.361c8.74-6.879 22.55-5.945 30.448 1.92 6.59 5.69 13.19 11.33 19.788 16.986.85.79 2.14 1.079 2.76 2.03-2.819 1.47-4.96 3.949-7.499 5.868-5.47 4.85-11.109 9.47-16.578 14.32-4.34 3.72-10.26 5.35-15.95 5.096-5.945.05-11.729-2.65-16.18-6.49-5.095-4.39-10.318-8.79-15.448-13.24-2.14-1.92-4.45-3.61-6.37-5.758 2.7-2.65 5.81-4.79 8.74-7.27 5.35-4.62 10.938-8.91 16.29-13.53z" class="cls-1" id="path3256" style="fill:#b79542;stroke-width:.84930497"/>
  <path d="M154.225 159.67a19.585 19.585 0 0 1 19.118-.74c3.1 1.47 5.41 4.06 8.06 6.15 5.86 4.68 11.729 9.47 17.649 14.09-6.039 5.418-12.239 10.488-18.38 15.729a25.3 25.3 0 0 1-15.788 6.794c-6.31.11-12.349-2.88-16.859-7.16-5.945-5.096-11.78-10.26-17.928-15.168a12.969 12.969 0 0 1 2.2-2.03c5.749-4.56 11.329-9.19 17.028-13.75a36.936 36.936 0 0 1 4.9-3.916z" class="cls-3" id="path3258" style="fill:#fdfcfb;stroke-width:.84930497"/>
  <path d="M161.504 162.14c9.19-1.808 18.6 5.41 20.12 14.439 1.698 9.342-6.03 18.889-15.39 19.848a15.763 15.763 0 0 1-13.079-4.739 18.073 18.073 0 0 1-4.06-18.43c1.98-5.46 6.71-9.97 12.409-11.1z" class="cls-2" id="path3260" style="fill:#2f1b72;stroke-width:.84930497"/>
  <path d="M94.188 164.052c-1.699 7.389-3.95 14.778-7.78 21.368-2.76 4.51-6.48 9.343-12.068 9.98a8.867 8.867 0 0 0 .96-2.03c1.808-6.09 5.367-11.39 8.764-16.715a116.678 116.678 0 0 1 10.192-12.629z" class="cls-3" id="path3262" style="fill:#fdfcfb;stroke-width:.84930497"/>
  <path d="M52.75 164.34a156.552 156.552 0 0 1 16.409 22.83c1.58 2.59 2.42 5.529 3.55 8.34-5.36-.73-9.13-5.01-11.84-9.342-4-6.659-6.429-14.21-8.119-21.819z" class="cls-3" id="path3264" style="fill:#fdfcfb;stroke-width:.84930497"/>
  <path d="M49.37 209.838a15.38 15.38 0 0 1 5.58 1.35 5.291 5.291 0 0 0 5.02.17c2.93-1.52 6.59-2.09 9.69-.569a7.644 7.644 0 0 0 4.68 1.02c1.41-.06 2.599-.96 3.89-1.41a12.323 12.323 0 0 1 4.849-.51 9.495 9.495 0 0 1 1.979.399c1.01.39 1.29.73 2.25 1.07a7.516 7.516 0 0 0 2.37.28 10.005 10.005 0 0 0 3.78-.79 15.364 15.364 0 0 1 3.89-1.13c0 .96.05 2.03.05 3.05a2.87 2.87 0 0 0-1.35.11 8.408 8.408 0 0 0-1.3.45 19.84 19.84 0 0 1-3.04 1.3 6.743 6.743 0 0 1-3.72.05 13.69 13.69 0 0 1-2.548-.9 11.228 11.228 0 0 1-1.699-.9 5.869 5.869 0 0 0-2.14-.17 5.673 5.673 0 0 0-2.09.561 10.701 10.701 0 0 1-5.638 1.605 18.243 18.243 0 0 1-3.814-.85c-1.24-.45-1.18-.62-2.2-.9-.849-.229-2.76-.79-4.06-.059a9.759 9.759 0 0 1-1.07.62l-1.01.51a10.268 10.268 0 0 1-2.599.62 14.192 14.192 0 0 1-3.89-.17c-2.03-.28-3.61-1.86-5.75-1.699a30.303 30.303 0 0 1-.11-3.108z" class="cls-3" id="path3270" style="fill:#fdfcfb;stroke-width:.84930497"/>
  <path d="M1.3 235.945s8.569 1.206 11.278 1.8c3.627.79 7.236 1.7 10.778 2.778 4.17 1.308 8.57 3.185 11.253 6.795a6.557 6.557 0 0 1 1.368 4.569c-.213 1.928-1.436 2.607-2.548 3.856 1.817.849 4.246 1.087 6.234 1.537q3.21.722 6.42 1.418 6.43 1.376 12.91 2.548c8.629 1.563 17.309 2.845 26.03 3.788q12.027 1.3 24.13 1.699c4.68-.11 9.418.28 14.098.11 4.68-.17 9.47.17 14.2-.39a359.817 359.817 0 0 0 59.537-8.23c3.499-.73 6.88-1.75 10.43-2.43-.68.137-2.04-1.86-2.336-2.377a5.945 5.945 0 0 1-.722-3.635c.348-2.472 2.548-4.247 4.535-5.538 4.298-2.845 9.13-4.17 14.099-5.308 4.968-1.138 10.302-1.835 15.431-2.752-.849.85-.535 2.76-.9 3.83a30.575 30.575 0 0 1-6.149 10.481 29.377 29.377 0 0 1-8.06 6.149c2.03.62 9.47 3.21 12.8 10.43a15.126 15.126 0 0 1 1.46 4.908 177.573 177.573 0 0 0-18.379 5.011c-1.63.57-6.14 1.699-7.83 2.09 0 3.329 0 6.71.05 10.03-2.36.34-4.62.96-6.93 1.47A394.553 394.553 0 0 1 137.001 300h-34.753a400.142 400.142 0 0 1-71.69-10.506c-.739-.17-1.529-.28-2.26-.4-.05-3.32-.05-6.7 0-10.03a110.987 110.987 0 0 0-18.888-5.698c-3.261-.671-6.48-1.18-9.41-1.52.144 0 3.686-5.784 4.153-6.345a32.843 32.843 0 0 1 11.687-8.875c-5.793-4-11.653-9.665-13.92-16.502a31.11 31.11 0 0 1-.62-4.179z" class="cls-1" id="path3272" style="fill:#b79542;stroke-width:.84930497"/>
  <path d="M5.002 239.597a78.985 78.985 0 0 1 15.288 3.27c4.56 1.86 9.52 3.397 12.85 7.22.23 2.93-2.87 4-5.096 4.849-.17 6.99 0 13.92-.06 20.97a55.96 55.96 0 0 1-5.945-2.03c-5.58-2.03-11.33-3.78-17.3-3.89a28.299 28.299 0 0 1 6.871-7.644c3.78-2.82 9.53-5.096 9.342-5.52-.186-.425-6.71-4.63-9.979-8.07a28.995 28.995 0 0 1-5.97-9.155z" class="cls-4" id="path3274" style="fill:#d9342d;stroke-width:.84930497"/>
  <path d="M220.19 242.901a84.684 84.684 0 0 1 14.38-3.27 35.543 35.543 0 0 1-6.26 9.589 34.312 34.312 0 0 1-10.769 8 .051.051 0 0 1 .051.06h-.051a26.965 26.965 0 0 1 10.6 5.41 26.651 26.651 0 0 1 6.2 7.389c-.468-.85-7.245 1.138-8.154 1.35-5.036 1.164-9.759 3.109-14.676 4.62-.51-6.93.05-13.979-.289-20.969a25.088 25.088 0 0 0-2.267-1.393 4.043 4.043 0 0 1-1.7-2.344c-.28-2.25 3.339-4 4.884-4.917a41.132 41.132 0 0 1 8.052-3.525z" class="cls-4" id="path3276" style="fill:#d9342d;stroke-width:.84930497"/>
  <path d="M31.212 264.805c.06-2.03-.17-4.06.23-6.09a383.325 383.325 0 0 0 65.846 10.43 366.594 366.594 0 0 0 44.478.05c22.388-1.35 44.487-5.095 66.246-10.37.23 9.47-.11 18.94.17 28.41a446.072 446.072 0 0 1-71.257 9.81c-5.419.288-10.77.17-16.188.458-30.1 0-60.097-4.06-89.525-10.192-.11-7.516 0-15.015 0-22.506z" class="cls-4" id="path3278" style="fill:#d9342d;stroke-width:.84930497"/>
  <path d="M133.986 285.095a19.755 19.755 0 0 1 4.799-2.99 53.396 53.396 0 0 1 .17 6.71c-1.3-1.631-3.16-2.65-4.969-3.72z" class="cls-4" id="path3288" style="fill:#d9342d;stroke-width:.84930497"/>
  <path d="M100.447 284.305c1.58-.62 3.16-2.14 4.9-1.75.12 2.03-.05 4.179.12 6.209-1.58-1.529-3.33-3.05-5.02-4.46z" class="cls-4" id="path3290" style="fill:#d9342d;stroke-width:.84930497"/>
  <path d="M112.507 48.147c1.3-1.3 2.65-2.71 4.01-4.17 2.649-2.82 5.01-5.699 7.1-8.349-.45.57 0 3.05 0 3.814a48.928 48.928 0 0 0 .152 5.231 43.824 43.824 0 0 0 3.899 13.224c.917 2.08 1.902 4.136 2.862 6.209 1.333 2.879 2.548 5.333 2.65 8.569.195 7.805-6.32 12.977-9.164 19.653-1.41 3.312-.935 6.336-.91 9.792-4.246-1.027-7.974-4.628-10.633-7.958a21.31 21.31 0 0 1-4.807-12.74c0-3.753 1.478-7.244 1.784-10.938a40.767 40.767 0 0 0-.654-9.801c-.747-4.841.17-8.994 3.711-12.536z" class="cls-1" id="path3224" style="fill:#b79542;stroke-width:.84930497"/>
  <path d="m113.238 53.566.187-.467c1.758-4.247 5.231-7.576 8.272-10.931-.671.747-.518 3.202-.51 4.128a20.562 20.562 0 0 0 .637 4.773c1.206 4.892 3.797 9.257 5.945 13.767 2.15 4.51 3.585 9.538.969 14.209-3.287 5.869-8.85 11.627-8.111 18.88a31.9 31.9 0 0 1-4.34-4.247 38.915 38.915 0 0 1-2.548-3.669 15.619 15.619 0 0 1-2.548-9.079c.161-4.569 1.936-8.934 1.699-13.53-.238-4.594-1.317-9.325.348-13.834z" class="cls-4" id="path3224-2" style="fill:#d9342d;stroke-width:.84930497"/>
  <path d="M49.03 202.449a16 16 0 0 1 5.58 1.384 5.266 5.266 0 0 0 5.02.17c2.99-1.52 6.599-2.14 9.64-.51a8.536 8.536 0 0 0 4.738 1.02c1.461-.11 2.548-1.02 3.89-1.41a12.213 12.213 0 0 1 4.841-.51 7.27 7.27 0 0 1 1.92.45c1.019.34 1.3.74 2.2 1.07a6.005 6.005 0 0 0 2.369.34 10.76 10.76 0 0 0 3.83-.85 14.77 14.77 0 0 1 4.01-1.129c0 1.011 0 2.03.05 3.04a5.877 5.877 0 0 0-1.35.12 7.576 7.576 0 0 0-1.3.45c-1.01.5-2.37 1.07-3.04 1.35a6.947 6.947 0 0 1-3.72.11 8.493 8.493 0 0 1-2.548-.96c-.79-.33-1.3-.67-1.699-.848a5.758 5.758 0 0 0-2.14-.17 9.877 9.877 0 0 0-2.149.51 10.362 10.362 0 0 1-5.69 1.58 11.984 11.984 0 0 1-3.78-.96c-1.18-.45-1.18-.57-2.2-.96-.849-.23-2.76-.73-4.059-.06a9.274 9.274 0 0 1-1.121.57c-.06 0-.569.28-1.02.5a15.228 15.228 0 0 1-2.547.68 15.135 15.135 0 0 1-4.009-.17c-2.03-.34-3.6-1.86-5.75-1.699.034-1.078.034-2.097.034-3.108z" class="cls-3" id="path3270-2" style="fill:#fdfcfb;stroke-width:.84930497"/>
  <path id="path39" d="M176.494 172.51h-3.397v18.949l-.62-.459c-.85-3.1-2.25-5.41-4.4-6.794a5.453 5.453 0 0 1-1.97 1.8 5.886 5.886 0 0 1-2.88.68 4.765 4.765 0 0 1-1.86-.45 5.945 5.945 0 0 1-1.859-1.07c-.56-.51-1.18-1.02-1.8-1.7a18.048 18.048 0 0 1-1.58-2.199 17.36 17.36 0 0 1-1.41-3.499 42.465 42.465 0 0 1-.85-4.247l1.07.45a30.753 30.753 0 0 0 1.181 4.06 14.107 14.107 0 0 0 1.81 3.151 8.374 8.374 0 0 0 2.31 2.03 4.824 4.824 0 0 0 2.547.739c2.149 0 3.44-.57 4.247-1.86a5.164 5.164 0 0 0 .68-2.65 2.854 2.854 0 0 0-.111-.96 4.026 4.026 0 0 0-.68-1.41 6.25 6.25 0 0 0-.73-.96 3.72 3.72 0 0 0-1.13-.62 1.826 1.826 0 0 0-1.07.17 2.183 2.183 0 0 1 .62 1.41 2.021 2.021 0 0 1-.34 1.13 3.78 3.78 0 0 1-.9.951 2.438 2.438 0 0 1-2.14.51 2.692 2.692 0 0 1-1.868-1.18 2.896 2.896 0 0 1-.332-1.36 2.454 2.454 0 0 1 .45-1.4 4.4 4.4 0 0 1 .96-1.13 5.512 5.512 0 0 1 3.04-1.07 6.794 6.794 0 0 1 1.47.22 6.523 6.523 0 0 1 1.91 1.13 7.253 7.253 0 0 1 1.64 1.8 6.327 6.327 0 0 1 .85 3.398 9.478 9.478 0 0 1-.45 2.76l2.369 2.14v-12.349h-17.776l-1.8-1.74h22.93z" class="cls-5" style="fill:#fff;stroke-width:.84930497"/>
  <path id="path41" d="M50.27 271.506c-.849 3.61-1.3 5.418-2.2 8.968a1.52 1.52 0 0 0 1.173 1.181 3.644 3.644 0 0 0 2.87-.85 5.02 5.02 0 0 0 1.92-2.369 1.885 1.885 0 0 1-.51-.06 5.529 5.529 0 0 1-.56-.22 3.5 3.5 0 0 1-.51-.45.85.85 0 0 1-.28-.62 1.316 1.316 0 0 1 0-.68 1.486 1.486 0 0 1 .79-1.13 1.885 1.885 0 0 1 1.35-.22 2.268 2.268 0 0 1 1.699 1.52c.06.34.17.68.288 1.13a7.474 7.474 0 0 1-.059 1.18 5.41 5.41 0 0 1-2.548 3.397 5.096 5.096 0 0 1-4.246 1.07 2.837 2.837 0 0 1-1.97-1.29 3.66 3.66 0 0 1-.51-2.37c.849-3.44 1.299-5.096 2.148-8.629a15.347 15.347 0 0 1-2.03-.501 9.674 9.674 0 0 1-.908-1.64c4.739 1.181 7.108 1.75 11.89 2.82.45.68.68.9 1.13 1.631-3.686-.628-5.487-1.019-8.927-1.868z" class="cls-6" style="fill:#fffdfd;stroke-width:.84930497"/>
  <path id="path43" d="M61.66 273.824c-1.07 5.41-1.58 8.111-2.71 13.59a14.591 14.591 0 0 1-1.13-1.631c.79-3.89 1.19-5.75 1.98-9.64a3.711 3.711 0 0 0 0-1.07 1.826 1.826 0 0 0-.51-.909c-.28-.28-.51-.5-.85-.79a6.132 6.132 0 0 0-1.129-.45 15.415 15.415 0 0 1-1.07-1.63 6.48 6.48 0 0 0 .79.11 5.393 5.393 0 0 0 1.07.17 3.397 3.397 0 0 1 1.46.96 3.525 3.525 0 0 1 .79 1.919c.06-.23.06-.57.17-1.02.11-.45.06-.849.17-1.35a6.064 6.064 0 0 0 .17-1.359 3.007 3.007 0 0 1 .17-.9 2.106 2.106 0 0 1 .45.51 9.928 9.928 0 0 0 .06 1.24 3.219 3.219 0 0 0 .28.9c.11 0 .17.06.28.06.11 0 .23.059.34.059.17.28.34.56.51.9l.33.671a4.586 4.586 0 0 0-.95-.22 3.066 3.066 0 0 1-.671-.12z" class="cls-6" style="fill:#fffdfd;stroke-width:.84930497"/>
  <path id="path45" d="M73.329 276.185c-.11.45-.11.57-.17.91a4.459 4.459 0 0 1 3.55 2.48 5.724 5.724 0 0 1 .85 3.889 5.554 5.554 0 0 1-.34.9 6.667 6.667 0 0 1-.62.79 1.767 1.767 0 0 1-.73.45 5.206 5.206 0 0 1-.96.06.892.892 0 0 1-.68-.289.781.781 0 0 1-.51-.45 1.121 1.121 0 0 1-.33-.56 2.828 2.828 0 0 1-.06-.68 1.316 1.316 0 0 1 .56-1.01 1.699 1.699 0 0 1 1.3-.281 1.588 1.588 0 0 1 .79.331c.17.17.45.34.51.62.05-.05.05-.17.17-.28a3.338 3.338 0 0 0-.79-2.59 4.484 4.484 0 0 0-3.05-1.64c-.67 4.4-1.01 6.54-1.698 10.94a.289.289 0 0 1-.221-.17.297.297 0 0 1-.17-.28 14.982 14.982 0 0 0-.85-2.37 11.89 11.89 0 0 0-1.18-2.03 7.644 7.644 0 0 0-3.89-2.82c-.569-1.01-.908-1.63-1.528-2.59a28.197 28.197 0 0 1 8.629-2.59 6.565 6.565 0 0 1 .17-1.07c-3.55-.62-5.36-.85-8.8-1.64-.22-.34-.5-.68-.73-1.01a3.244 3.244 0 0 0-.39-.57c2.82.57 5.69 1.13 8.68 1.64 2.99.51 5.69.9 8.4 1.24.509.56.789.9 1.299 1.52a48.41 48.41 0 0 1-7.211-.85zm-1.86 2.71c-.85.17-1.809.45-2.71.68-.9.229-1.86.67-2.989 1.07a9.86 9.86 0 0 1 4.4 5.24h.059c.56-2.76.79-4.111 1.24-6.99z" class="cls-6" style="fill:#fffdfd;stroke-width:.84930497"/>
  <path id="path47" d="m83.215 277.375-1.699 13.81a13.156 13.156 0 0 1-1.18-1.521c.5-3.89.79-5.86 1.29-9.759a3.227 3.227 0 0 0-.05-1.07 2.123 2.123 0 0 0-.62-.9 3.185 3.185 0 0 0-.909-.67 3.057 3.057 0 0 0-1.01-.29l-.17-.849-.17-.68a2.616 2.616 0 0 1 .62.06 3.55 3.55 0 0 1 1.919.85 2.981 2.981 0 0 1 .85 1.86c0-.28.059-.62.059-1.011 0-.391.11-.85.11-1.41 0-.56.06-1.02.06-1.35 0-.332.06-.68.06-1.02a3.21 3.21 0 0 0 .45.45 3.312 3.312 0 0 0 .62 2.14 7.015 7.015 0 0 1 1.18.17c.51.57.68.85 1.189 1.41-1.045-.05-1.546-.11-2.6-.22z" class="cls-6" style="fill:#fffdfd;stroke-width:.84930497"/>
  <path id="path49" d="M108.507 276.755a10.421 10.421 0 0 0-1.47-1.19 10.192 10.192 0 0 0-1.698-1.18 7.966 7.966 0 0 0-1.86-.85 8.051 8.051 0 0 0-2.03-.33 6.327 6.327 0 0 0-3.159.849c-1.18.68-1.92 1.469-2.03 2.37a11.228 11.228 0 0 0 .45 1.299l.34.05a5.096 5.096 0 0 0 .586.052 3.728 3.728 0 0 1 1.835 1.469h-.841l-.73-.076-.79-.051c-.46 5.52-.629 8.28-1.02 13.75-.51-.56-.849-.85-1.35-1.41.45-5.02.56-7.55 1.01-12.51-.849-.06-1.29-.06-2.14-.17-.51-.62-.73-.85-1.18-1.47 1.46.17 2.191.17 3.6.34-.33-.34-.5-.56-.848-.9a1.342 1.342 0 0 1-.45-1.07c.05-1.13.79-2.03 2.14-2.88a6.404 6.404 0 0 1 3.55-1.129c2.76.17 5.41 1.699 7.95 4.4a3.601 3.601 0 0 0 .135.637z" class="cls-6" style="fill:#fffdfd;stroke-width:.84930497"/>
  <path id="path51" d="M109.23 279.744c-.162 5.58-.222 8.4-.502 13.98a10.667 10.667 0 0 1-.79-.9 1.622 1.622 0 0 0-.17-.45 3.185 3.185 0 0 0-.45-.85 5.487 5.487 0 0 0-.85-1.3 7.372 7.372 0 0 0-1.01-1.189 9.13 9.13 0 0 0-4.739-2.14l-1.699-2.548a39.408 39.408 0 0 1 8.68-3.728v-.9c-3.72-.17-5.69-.28-9.342-.51-.501-.62-.79-.85-1.29-1.46 1.613.135 3.26.246 4.934.347q4.458.264 8.68.357l.492.57c.212.254.416.509.603.755h-1.087c-.51.017-.994 0-1.46-.034zm-1.462 3.16a27.798 27.798 0 0 0-2.76 1.01c-.909.4-1.92.909-2.99 1.41a11.423 11.423 0 0 1 5.521 4.85c.06-2.871.17-4.4.23-7.27z" class="cls-6" style="fill:#fffdfd;stroke-width:.84930497"/>
  <path id="path53" d="M124.296 279.795c.11 5.58.17 8.4.22 13.98a15.787 15.787 0 0 1-.738-.654 35.781 35.781 0 0 1-.671-.654c0-1.393 0-2.786-.043-4.17l-.068-4.111v-.272a3.559 3.559 0 0 0-.9-2.03 2.548 2.548 0 0 0-1.809-1.189 1.486 1.486 0 0 0-1.01.34c-.34.28-.51.51-.51.79 1.47 1.019 2.2 1.75 2.2 2.48a1.758 1.758 0 0 1-.51 1.359 2.99 2.99 0 0 1-1.35.781 2.098 2.098 0 0 1-1.3-.45 1.843 1.843 0 0 1-.85-1.18 2.285 2.285 0 0 1-2.31 1.639 1.63 1.63 0 0 1-1.299-.57 1.775 1.775 0 0 1-.407-1.367 2.208 2.208 0 0 1 .17-.9 6.616 6.616 0 0 1 .5-.85 3.117 3.117 0 0 1 .79-.679c.34-.17.62-.331.91-.45a4.102 4.102 0 0 0-2.32-1.741 3.805 3.805 0 0 0-1.698-.085l-.578-.594c-.246-.264-.5-.519-.755-.773a16.561 16.561 0 0 1 2.412.144 4.909 4.909 0 0 1 2.666.85 3.33 3.33 0 0 1 .56.585 3.508 3.508 0 0 1 .62 1.393c.85-1.75 2.03-2.709 3.5-2.709.51 0 1.18.45 1.92 1.35a6.794 6.794 0 0 1 1.494 2.166c-.06-2.37-.17-3.559-.34-5.869.34.34.51.45.85.79a1.699 1.699 0 0 0 .9 1.3 1.605 1.605 0 0 0 .994.093 8.425 8.425 0 0 0 .662 1.18l-1.138.052zm.28 16.01a4.425 4.425 0 0 1-1.699-1.41 4.875 4.875 0 0 0-1.41-1.52 3.057 3.057 0 0 0-1.358-.51c-.56-.051-1.07-.162-1.699-.221-.62-.79-.85-1.13-1.359-1.86l3.16-2.03 2.879-1.75 1.393 1.478zm-1.52-7.211c-.45.28-.909.5-1.529.9-.62.4-1.35.79-2.14 1.3a7.245 7.245 0 0 1 1.92.79 10.132 10.132 0 0 1 1.8 1.52c.025-1.792.025-2.642-.051-4.51z" class="cls-6" style="fill:#fffdfd;stroke-width:.84930497"/>
  <path id="path55" d="M140.475 276.185c-.45-.33-.96-.67-1.52-1.01-.56-.34-1.19-.68-1.869-1.02a8.434 8.434 0 0 0-1.97-.67c-.68-.06-1.35-.17-2.03-.17a5.699 5.699 0 0 0-3.04 1.18c-1.07.79-1.75 1.699-1.75 2.6a12.74 12.74 0 0 0 .62 1.29l.85-.06h.849a1.571 1.571 0 0 0 .068.391 1.29 1.29 0 0 0 .144.306.85.85 0 0 0 .11.331 1.13 1.13 0 0 0 .179.23h-.57l-1.078.05c.17 5.53.23 8.29.45 13.87-.62-.51-.951-.79-1.52-1.291-.17-5.02-.17-7.559-.34-12.519-.85 0-1.29 0-2.14.06a15.287 15.287 0 0 1-1.35-1.3c1.46 0 2.2 0 3.66-.06-.45-.339-.62-.5-1.01-.849a1.699 1.699 0 0 1-.62-1.019 3.932 3.932 0 0 1 1.749-3.04 5.741 5.741 0 0 1 3.397-1.47c2.82-.05 5.58 1.02 8.4 3.55a1.699 1.699 0 0 1 .331.62z" class="cls-6" style="fill:#fffdfd;stroke-width:.84930497"/>
  <path id="path57" d="M141.817 279.065c.45 5.58.62 8.4 1.02 13.869l-.85-.85a1.877 1.877 0 0 1-.23-.45l-.5-.79a10.659 10.659 0 0 0-2.2-2.2 9.249 9.249 0 0 0-4.91-1.63c-.73-.9-1.18-1.41-1.91-2.37a45.438 45.438 0 0 1 8.28-4.68 2.098 2.098 0 0 0-.11-.9c-1.24.111-2.48.17-3.72.221-1.92.12-3.83.17-5.69.29-.17-.17-.4-.34-.57-.51a9.869 9.869 0 0 1-.73-.73c2.03-.06 4.17-.12 6.37-.29 2.2-.17 4.4-.28 6.48-.5a9.122 9.122 0 0 1 1.64.9c.17.11.28.22.39.28-1.061.17-1.681.23-2.76.34zm-1.13 3.21a20.095 20.095 0 0 0-2.65 1.359c-.9.501-1.86 1.121-2.76 1.741a11.627 11.627 0 0 1 5.945 4.246c-.186-2.947-.254-4.467-.526-7.346z" class="cls-6" style="fill:#fffdfd;stroke-width:.84930497"/>
  <path id="path59" d="M146.913 278.615c.23 2.48.34 3.72.62 6.14.458-.56.96-1.07 1.47-1.63.509-.561 1.07-.9 1.579-1.41.51-.51 1.07-.85 1.58-1.181a13.037 13.037 0 0 1 1.46-.85c1.02.561 1.41.85 2.43 1.351a15.211 15.211 0 0 0-1.19 6.71 20.96 20.96 0 0 0 1.02 3.949c-.45-.17-.62-.17-1.02-.34-.45-1.18-.73-2.26-1.01-3.21a16.774 16.774 0 0 1-.51-2.37 12.493 12.493 0 0 1 .06-3.55 9.19 9.19 0 0 0-3.1 2.48 11.975 11.975 0 0 0-2.14 3.397l-2.15-1.698c-.28-3.151-.45-4.672-.67-7.78a11.253 11.253 0 0 1-1.41.06c-.62-.51-.96-.79-1.53-1.181 5.42-.45 8.01-.68 13.42-1.359.569.45.9.68 1.52 1.19-4.127.602-6.183.882-10.43 1.282z" class="cls-6" style="fill:#fffdfd;stroke-width:.84930497"/>
  <path id="path61" d="M161.869 276.78c-1.29.289-1.86 1.3-1.75 2.82a13.903 13.903 0 0 0 .85 3.558c.23.782.51 1.461.68 2.03.17.57.22 1.121.339 1.52a3.61 3.61 0 0 1-.17 1.52 4.977 4.977 0 0 1-.79 1.52 11.372 11.372 0 0 1-1.189 1.02 6.99 6.99 0 0 1-1.35.79 6.845 6.845 0 0 1-.85-.45 5.36 5.36 0 0 0 1.3-.79 2.616 2.616 0 0 0 1.02-1.02 3.55 3.55 0 0 0 .33-2.31 10.039 10.039 0 0 0-.22-1.07c-.17-.45-.34-.9-.62-1.52-.51-1.078-.73-2.03-.96-2.599a5.699 5.699 0 0 1 1.52-4.79c-.9.17-1.8.28-2.7.391l-1.24.17c-.29-.221-.57-.45-.91-.671-.34-.22-.5-.34-.73-.51 1.13-.17 2.26-.34 3.5-.51.9-.11 1.8-.17 2.65-.28a3.176 3.176 0 0 1 1.52.4 2.548 2.548 0 0 1 .73.56c-.45.11-.629.11-.96.221z" class="cls-6" style="fill:#fffdfd;stroke-width:.84930497"/>
  <path id="path63" d="M164.893 276.491c.34 2.157.721 4.637 1.061 6.795l1.07 6.794a18.167 18.167 0 0 0-1.58-1.13c-.62-3.89-.849-5.86-1.46-9.75a1.699 1.699 0 0 0-.45-1.07 9.597 9.597 0 0 0-.74-.79 7.075 7.075 0 0 0-1.01-.45 3.924 3.924 0 0 0-1.18 0c-.57-.45-.91-.679-1.53-1.13a6.845 6.845 0 0 0 1.53-.228 4.357 4.357 0 0 1 2.02.229 4.051 4.051 0 0 1 1.36 1.63 4.799 4.799 0 0 0-.17-1.01c-.11-.45-.17-.85-.34-1.35-.17-.502-.17-.91-.23-1.36a3.108 3.108 0 0 1-.16-.9 4.247 4.247 0 0 1 .5.34 4.799 4.799 0 0 0 1.275 2.03l.62-.11.654-.094.424.323c.4.289.79.543 1.164.773l-1.087.161z" class="cls-6" style="fill:#fffdfd;stroke-width:.84930497"/>
  <path id="path65" d="M179.093 273.706c1.07 5.528 1.699 8.23 2.76 13.699a8.17 8.17 0 0 0-1.698-.9c-.62-2.99-.85-4.51-1.47-7.44a1.444 1.444 0 0 0-.73-1.07 1.91 1.91 0 0 0-1.317-.272c-.738.17-1.07.67-.908 1.63 0 .17.17.51.229.79a1.367 1.367 0 0 0-.51.34 2.93 2.93 0 0 0-1.46-1.52 3.737 3.737 0 0 0-2.2-.34 2.038 2.038 0 0 0-.9.34c-.23.17-.51.45-.79.67-.28.221-.34.62-.45.85a5.818 5.818 0 0 0-.06 1.01c.17 1.07.9 1.64 2.37 1.53a2.166 2.166 0 0 1-.68-1.02 1.147 1.147 0 0 1 .34-1.13 1.359 1.359 0 0 1 1.01-.56 1.902 1.902 0 0 1 2.31 1.656 2.404 2.404 0 0 1-.339 1.36 2.548 2.548 0 0 1-1.58.848 8.009 8.009 0 0 1-1.698 0 4.501 4.501 0 0 1-1.478-.51 3.5 3.5 0 0 1-1.01-1.018 4.017 4.017 0 0 1-.51-1.52 4.535 4.535 0 0 1 .34-2.59 2.658 2.658 0 0 1 2.03-1.666 4.085 4.085 0 0 1 3.439 1.181 1.699 1.699 0 0 1 .331-1.18 2.09 2.09 0 0 1 1.02-.79c1.07-.28 2.14.34 2.989 1.698-.28-1.46-.45-2.14-.68-3.55-1.919.4-3.89.73-5.945 1.13l-4.85.849a4.323 4.323 0 0 1-.62-.501 2.956 2.956 0 0 1-.509-.68c3.44-.45 5.869-.9 7.449-1.18l6.14-1.24c.06 0 .51-.119.57-.119.28.17.5.34.79.51.288.17.5.34.78.51a6.242 6.242 0 0 0-2.505.195z" class="cls-6" style="fill:#fffdfd;stroke-width:.84930497"/>
  <path id="path67" d="M191.501 271.15c1.36 5.528 2.03 8.178 3.398 13.707a6.506 6.506 0 0 1-2.03-1.64 8.748 8.748 0 0 0-2.6-1.919 8.034 8.034 0 0 0-4.39-.33c-.909-.79-1.41-1.13-2.37-1.87.56-.849 1.18-1.63 1.75-2.36a12.281 12.281 0 0 1 1.63-1.98 3.066 3.066 0 0 0-1.129-.34c-.501-.05-1.18-.22-2.03-.33-1.91-.06-3.397-.57-4.246-1.529 5.01-1.01 7.44-1.63 12.459-2.87.67.339 1.01.56 1.699.9-.782.229-1.181.28-2.14.56zm-4.246 13.027a1.198 1.198 0 0 1 .28-1.019 1.35 1.35 0 0 1 .9-.56 1.826 1.826 0 0 1 1.13.17 1.478 1.478 0 0 1 .68.849 1.699 1.699 0 0 1-.17 1.02 1.29 1.29 0 0 1-.9.56 1.826 1.826 0 0 1-1.13-.17.943.943 0 0 1-.824-.85zm2.972-12.799c-2.03.51-3.1.79-5.096 1.181a10.056 10.056 0 0 1 1.75.85c.68.45 1.52.9 2.37 1.52-.45.569-.85 1.299-1.3 1.919-.45.62-.85 1.35-1.29 2.03a9.767 9.767 0 0 1 6.08 2.71h.034c-.985-4.01-1.495-6.04-2.548-10.21z" class="cls-6" style="fill:#fffdfd;stroke-width:.84930497"/>
  <path id="path69" d="M61.32 47.018a20.222 20.222 0 0 0-2.37 1.299 29.513 29.513 0 0 0-2.7 1.91 17.097 17.097 0 0 0-2.48 2.48 27.475 27.475 0 0 0-2.15 3.05 15.237 15.237 0 0 0-1.698 5.69c-.289 2.37 0 3.84.782 4.247a13.453 13.453 0 0 1 1.528-.34l.34-.85a5.894 5.894 0 0 1 .39-.9c.34-.229.731-.45 1.13-.738.4-.29.73-.561 1.07-.79l-.34.68c-.39.789-.73 1.579-1.07 2.31 4.79 2.369 7.27 3.55 12.12 5.944-.79.51-1.18.79-1.97 1.35-4.4-2.03-6.71-3.04-11.041-4.96-.57 1.351-.85 2.03-1.36 3.5-.848.73-1.18 1.07-2.029 1.86a59.706 59.706 0 0 1 2.319-6.234c-.56.51-.85.73-1.41 1.291-.56.56-1.01.68-1.35.51-.9-.45-1.52-1.97-1.351-4.51a16.205 16.205 0 0 1 1.699-6.59 20.918 20.918 0 0 1 11.27-10.192c.28-.128.331-.017.67-.017z" class="cls-5" style="fill:#fff;stroke-width:.84930497"/>
  <path id="path71" d="M67.078 44.818c3.89 3.89 5.81 5.869 9.75 9.758-.85.162-1.35.221-2.191.45a208.772 208.772 0 0 0-5.988-5.766 3.312 3.312 0 0 0-2.48-.34 3.397 3.397 0 0 0-2.59 1.47 4.892 4.892 0 0 0-.747 1.477c-.17.62-.06.96.17 1.07 2.14-1.3 3.397-1.52 3.89-1.07a1.699 1.699 0 0 1 .56 1.47 4.476 4.476 0 0 1-.68 2.14 5.453 5.453 0 0 1-1.46 1.29 2.191 2.191 0 0 1-1.7.34 4.179 4.179 0 0 1-.509 3.89 3.618 3.618 0 0 1-1.41 1.359 1.41 1.41 0 0 1-1.41 0 1.945 1.945 0 0 1-.679-.79 3.754 3.754 0 0 1-.34-1.189 13.963 13.963 0 0 1 0-1.46 3.907 3.907 0 0 1 .46-1.53 4.884 4.884 0 0 0-3.33 2.43c-.824 1.333-1.164 2.182-1.334 2.37-.34.22-.73.5-1.13.789-.398.289-.73.56-1.12.85a26.405 26.405 0 0 1 2.31-4.731 7.117 7.117 0 0 1 2.37-2.6 2.939 2.939 0 0 1 2.547-.62 6.548 6.548 0 0 1 1.19-6.259 4.858 4.858 0 0 1 3.04-1.57 5.758 5.758 0 0 1 2.99-.23l.059-.11c-1.75-1.53-2.599-2.2-4.51-3.72a14.226 14.226 0 0 1 1.46-.51 2.166 2.166 0 0 0 2.43-.17 8.816 8.816 0 0 1 1.52-.73 5.64 5.64 0 0 1 1.24-.29c-.866.952-1.367 1.462-2.378 2.532z" class="cls-5" style="fill:#fff;stroke-width:.84930497"/>
  <path id="path73" d="M92.948 26.779a57.464 57.464 0 0 0-8.68 4.06c.45.73.62 1.18 1.01 1.919a6.854 6.854 0 0 1 1.3-.79 6.676 6.676 0 0 1 4.06-.85 2.956 2.956 0 0 1 2.548 1.64 2.599 2.599 0 0 1 0 1.86 3.024 3.024 0 0 1-1.18 1.35 4.9 4.9 0 0 1-1.92.51 1.512 1.512 0 0 1-1.35-.45 1.045 1.045 0 0 1 0-1.07 1.478 1.478 0 0 1 .9-.85 2.888 2.888 0 0 1 2.37-.17 2.03 2.03 0 0 0 0-.85c-.17-.45-.85-.67-1.86-.5a10.489 10.489 0 0 0-2.37.79 8.034 8.034 0 0 0-1.461 1.01c1.74 3.398 2.7 5.096 4.45 8.63a7.975 7.975 0 0 0-1.01-.23c-.68-.51-1.19-.85-1.7-1.18a4.289 4.289 0 0 0-1.01-.62 5.266 5.266 0 0 0-3.72-.06 2.947 2.947 0 0 1-1.35 2.548 2.497 2.497 0 0 1-1.64.62 1.376 1.376 0 0 1-1.299-2.2 3.762 3.762 0 0 1 1.699-1.698 1.215 1.215 0 0 0-.23-.73 1.546 1.546 0 0 0-1.469-.68 3.007 3.007 0 0 0-1.91.68.56.56 0 0 0-.34.45c-.06.22-.34.45-.28.5a3.474 3.474 0 0 1 .17 1.47 3.983 3.983 0 0 1-1.02 1.639 3.312 3.312 0 0 1-1.783.9 1.605 1.605 0 0 1-1.631-.51c-.45-.509-.23-1.469.45-2.48a5.945 5.945 0 0 1 .79-.849c0-.05 0-.05-.06-.17-.059-.118-.17-.05-.34-.16h-.56c-.28 0-.45.11-.68.11-.229 0-.45.05-.5.17-.91.849-1.41 1.29-2.26 2.199a17.198 17.198 0 0 0-2.48.671 71.732 71.732 0 0 1 24.359-16.8 3.584 3.584 0 0 1 1.987.17zm-5.86 13.138c-1.02-1.86-1.529-2.768-2.548-4.68a11.347 11.347 0 0 1-4.247 1.181 4.586 4.586 0 0 1-3.329-1.01c-1.699 1.29-2.548 1.91-4.247 3.397a3.762 3.762 0 0 1 .68.17c.22.11.56.17 1.01.34.28-.17.51-.23.68-.34.17-.11.34-.17.501-.23a5.529 5.529 0 0 1 2.149-.67 13.988 13.988 0 0 1 2.14-.17 5.945 5.945 0 0 1 1.86.5 4.544 4.544 0 0 1 1.3 1.02 4.892 4.892 0 0 1 4.06.51zm-3.397-6.09c-.45-.848-.68-1.188-1.07-2.029-1.47.85-2.15 1.29-3.398 2.14-.289.17-.34.45-.119.85.68 1.01 1.86.849 3.84-.34a1.189 1.189 0 0 1 .45-.23c-.086-.17.084-.246.254-.39z" class="cls-5" style="fill:#fff;stroke-width:.84930497"/>
  <path id="path75" d="M96.897 25.539c1.605 5.24 2.455 7.95 4.153 13.19-.79-.34-1.189-.45-1.92-.79-1.299-3.72-1.86-5.58-3.159-9.343a1.588 1.588 0 0 0-.67-.9 2.336 2.336 0 0 0-1.19-.45 2.998 2.998 0 0 0-.73-.06 4.085 4.085 0 0 0-.85.06h-.78a.943.943 0 0 1-.68-.4 2.548 2.548 0 0 1-.17-.39c.56-.17.96-.28 1.3-.4a5.826 5.826 0 0 1 .62-.17 1.834 1.834 0 0 1 .79-.05 4.51 4.51 0 0 1 .62.11 4.663 4.663 0 0 1 1.52.96c-.11-.23-.17-.62-.34-.96-.17-.34-.34-.73-.62-1.3a4.722 4.722 0 0 1-.51-1.29c-.17-.34-.22-.68-.34-.9a4.247 4.247 0 0 1 .85.161 3.15 3.15 0 0 0 1.86 1.529l.51-.17a6.743 6.743 0 0 0 1.07-.45c.28.11.62.22 1.01.331a8.96 8.96 0 0 0 1.64.34c-.85.229-1.64.51-2.48.79-.553.212-1.003.382-1.504.552z" class="cls-5" style="fill:#fff;stroke-width:.84930497"/>
  <path id="path77" d="M119.667 22.328a63.035 63.035 0 0 0-10.77.79c.17.161.46.22.63.45a5.767 5.767 0 0 0 .62.331 8.986 8.986 0 0 1 4.11 1.08 2.87 2.87 0 0 1 1.699 2.547 3.236 3.236 0 0 1-1.699 2.769 15.78 15.78 0 0 1-3.864 1.783 18.413 18.413 0 0 1 4.06 1.699 28.146 28.146 0 0 1 4.34 2.879c.17.501.229.85.398 1.35a13.657 13.657 0 0 0-2.598-1.919 18.421 18.421 0 0 0-3.398-1.52 15.916 15.916 0 0 0-3.83-.85 24.137 24.137 0 0 0-4.009-.161c-1.07-1.079-1.698-1.699-2.87-2.71a21.453 21.453 0 0 0 5.35-.11 10.812 10.812 0 0 0 3.61-1.019c1.47-.73 2.14-1.52 1.92-2.37a1.91 1.91 0 0 0-.85-1.52 3.601 3.601 0 0 0-.96-.45 6.064 6.064 0 0 0-1.07-.06c-.17 0-.331.06-.501.06-.17 0-.45.11-.51.17a3.635 3.635 0 0 1-.9 1.86 4.459 4.459 0 0 1-2.37 1.18 7.55 7.55 0 0 1-1.639 0 1.189 1.189 0 0 1-.9-.78 2.641 2.641 0 0 1 .892-2.328 6.073 6.073 0 0 1 3.049-1.52c0-.22-.51-.51-1.52-.85-1.36.221-2.77.502-4.179.85-.39.11-.73.17-1.121.28a2.667 2.667 0 0 1-1.699 0 2.123 2.123 0 0 1-.95-.62c1.63-.5 3.49-1.01 5.469-1.46a59.774 59.774 0 0 1 7.44-1.19 4.247 4.247 0 0 0 .849-.17 8.536 8.536 0 0 1 .85-.22c.79-.23 1.07-.51 1.07-.85 0-.34-.51-.5-1.351-.62-.23 0-.62-.11-.96-.11a3.21 3.21 0 0 0-1.019.11 6.981 6.981 0 0 0-1.29.17 13.86 13.86 0 0 0-1.75.34c-.68.17-1.3.23-1.81.34-.509.11-.9.17-1.29.22a12.086 12.086 0 0 1-4.46.23c-1.63-.17-2.59-.68-2.87-1.52a1.486 1.486 0 0 1 .28-1.02c.23-.51.51-.79.85-.79a.357.357 0 0 0 .22-.05c.06 0 .17-.12.34-.12a1.435 1.435 0 0 0-.68 1.36c.12.45.62.67 1.47.73a6.115 6.115 0 0 0 2.2-.17c.34-.06.96-.22 1.86-.45.9-.23 2.2-.62 3.66-.85a13.292 13.292 0 0 1 6.15.23 2.65 2.65 0 0 1 2.02 2.624c.68 0 1.011-.11 1.801-.11a13.589 13.589 0 0 0 2.48 2.055z" class="cls-5" style="fill:#fff;stroke-width:.84930497"/>
  <path id="path79" d="M155.924 31.849c-1.359-.781-2.03-1.18-3.397-1.86-2.42 4.968-3.72 7.448-6.14 12.46a3.992 3.992 0 0 0-.45-.502 7.703 7.703 0 0 0-1.86-6.37 5.02 5.02 0 0 1-2.26.501 8.612 8.612 0 0 1-2.76-.5 4.646 4.646 0 0 1-1.64-.85 10.251 10.251 0 0 1-1.545-1.3 14.277 14.277 0 0 1-1.47-1.698 17.198 17.198 0 0 1-1.18-1.92 8.79 8.79 0 0 1-.9-2.76 19.9 19.9 0 0 1-.34-3.27 12.391 12.391 0 0 1 1.13.62 9.92 9.92 0 0 0 .73 3.16 10.463 10.463 0 0 0 1.35 2.548 9.274 9.274 0 0 0 1.86 2.03 6.276 6.276 0 0 0 2.319 1.3c2.03.679 3.55.73 4.51.169a3.134 3.134 0 0 0 1.35-1.52 1.367 1.367 0 0 0 .17-.68 4.977 4.977 0 0 0-.23-1.3 2.149 2.149 0 0 0-.62-1.01 2.718 2.718 0 0 0-1.01-.85c-.34-.169-.79-.22-1.07-.339a1.699 1.699 0 0 1 .22 1.19 1.699 1.699 0 0 1-.62.67 4.816 4.816 0 0 1-1.18.34 4.247 4.247 0 0 1-2.31-.34 3.397 3.397 0 0 1-1.699-1.35 1.614 1.614 0 0 1-.118-1.01 1.809 1.809 0 0 1 .679-.91 2.71 2.71 0 0 1 1.3-.5 8.629 8.629 0 0 1 3.397.22c.5.17 1.01.45 1.52.68a9.852 9.852 0 0 1 1.8 1.52 7.16 7.16 0 0 1 1.19 1.92 3.261 3.261 0 0 1-.17 2.7 5.8 5.8 0 0 1-1.19 1.699 20.63 20.63 0 0 1 1.623 2.53c1.529-3.329 2.259-4.908 3.839-8.23-7.406-3.558-11.237-4.738-19.246-6.106a16.646 16.646 0 0 0-1.86-1.639 69.006 69.006 0 0 1 25.038 8.434 18.557 18.557 0 0 1 1.24 2.123zm3.04 1.979c-2.99 4.68-4.399 6.99-7.27 11.67-.229-.85-.45-1.19-.68-2.03 1.92-3.398 2.99-5.096 4.96-8.494a2.607 2.607 0 0 0 .281-1.18 2.42 2.42 0 0 0-.45-1.3 5.198 5.198 0 0 0-1.01-1.18 6.174 6.174 0 0 0-1.47-1.02c-.51-.849-.73-1.29-1.29-2.14.848.45 1.29.68 2.14 1.07a8.756 8.756 0 0 1 2.369 1.92 3.338 3.338 0 0 1 .501 2.37 8.493 8.493 0 0 1 .51-.85c.17-.34.34-.73.62-1.3.28-.568.45-.848.62-1.29.17-.442.34-.62.45-.85a6.225 6.225 0 0 0 .45.79 3.227 3.227 0 0 0 .06 2.421 16.417 16.417 0 0 0 1.596 1.113 18.073 18.073 0 0 1 .909 2.31c-1.266-.68-1.945-1.19-3.296-2.03z" class="cls-5" style="fill:#fff;stroke-width:.84930497"/>
  <path id="path81" d="M171.874 44.877a14.515 14.515 0 0 0-3.729-2.2 9.342 9.342 0 0 0-3.397-.62 7.941 7.941 0 0 0-2.71.731 8.493 8.493 0 0 0-2.199 1.92 4.017 4.017 0 0 0-.73 2.709c.17 1.698.68 2.76 1.58 3.397a1.894 1.894 0 0 1-.17-1.07.926.926 0 0 1 .34-.74.9.9 0 0 1 1.18-.22 3.915 3.915 0 0 1 1.47.73 2.446 2.446 0 0 1 .73 1.52 1.452 1.452 0 0 1-.51 1.47 2.225 2.225 0 0 1-.79.45 1.265 1.265 0 0 1-.9 0 2.726 2.726 0 0 1-1.01-.45 5.852 5.852 0 0 1-1.02-.73 6.327 6.327 0 0 1-2.115-5.062 7.525 7.525 0 0 1 1.461-4.4c1.359-1.86 3.839-2.87 7.449-2.548-.96-.849-1.98-1.698-3.1-2.65-.85-.67-1.64-1.29-2.48-1.86 0-.22.05-.5.05-.73v-.85a52.903 52.903 0 0 1 5.096 4.001 55.205 55.205 0 0 1 5.096 5.24c0 .23.06.45.06.68a6.438 6.438 0 0 1 .348 1.282z" class="cls-5" style="fill:#fff;stroke-width:.84930497"/>
  <path id="path83" d="M182.983 60.547c-4.74 2.71-7.109 4.17-11.84 6.794.051-.9.051-1.41.051-2.36 2.548-1.64 3.84-2.37 6.26-3.89.45-.23.62-.68.62-1.36a3.584 3.584 0 0 0-.586-1.978c-.671-1.07-1.35-1.35-2.14-.73-.17.059-.34.34-.62.62a7.49 7.49 0 0 1-.68-.62 3.227 3.227 0 0 0 .45-2.48 6.693 6.693 0 0 0-1.35-2.99 4.578 4.578 0 0 0-1.07-1.01 5.648 5.648 0 0 0-1.18-.62 1.597 1.597 0 0 0-1.13-.06 1.393 1.393 0 0 0-.9.45c-.79.73-.62 1.86.5 3.397.12-.62.17-1.02.45-1.18a1.376 1.376 0 0 1 1.19-.12 3.15 3.15 0 0 1 1.35 1.02c1.13 1.52 1.13 2.76.17 3.49a1.588 1.588 0 0 1-1.52.06 5.308 5.308 0 0 1-1.86-1.52c-.51-.68-.9-1.36-1.3-1.92a7.117 7.117 0 0 1-.62-1.86 3.482 3.482 0 0 1 .11-1.699 7.22 7.22 0 0 1 .74-1.469 3.108 3.108 0 0 1 2.547-.85 4.459 4.459 0 0 1 3.22 1.86 7.55 7.55 0 0 1 1.698 5.097c.34-.221.73-.221 1.41.11a3.032 3.032 0 0 1 1.46 1.19 4.62 4.62 0 0 1 .34 4.73c1.19-.782 1.75-1.07 3.05-1.86a62.917 62.917 0 0 0-10.94-14.702c-.23-1.019-.45-1.52-.68-2.547A71.036 71.036 0 0 1 184.894 62c0 1.07 0 1.698-.05 2.76a33.267 33.267 0 0 0-1.86-4.213z" class="cls-5" style="fill:#fff;stroke-width:.84930497"/>
  <path id="path85" d="M186.592 68.726a2234.84 2234.84 0 0 0-12.349 5.35c.17-.96.221-1.35.45-2.37 3.398-1.57 5.096-2.42 8.63-4.05a2.548 2.548 0 0 0 .849-.85 3.813 3.813 0 0 0 .23-1.469 8.493 8.493 0 0 0-.23-1.741 9.7 9.7 0 0 0-.73-2.149c0-.85-.06-1.63-.06-2.48.119.23.34.51.569.85.23.34.501.849.85 1.58a7.253 7.253 0 0 1 1.018 3.27 4.39 4.39 0 0 1-.79 2.547 6.132 6.132 0 0 0 .85-.45c.34-.17.739-.45 1.189-.73.45-.28.85-.51 1.18-.68.332-.17.561-.331.85-.45v1.019a3.108 3.108 0 0 0-1.19 2.25c.34.85.51 1.3.79 2.15-.17 1.12-.28 1.698-.45 2.81-.645-1.876-.985-2.717-1.656-4.407z" class="cls-5" style="fill:#fff;stroke-width:.84930497"/>
</svg>