<?xml version="1.0" encoding="UTF-8"?><svg xmlns="http://www.w3.org/2000/svg" width="236.05" height="250" viewBox="0 0 236.05 250"><defs><style>.cls-1{fill:#ed2027;}.cls-2{fill:#0d763e;}</style></defs><path class="cls-2" d="M115.54,250c-43.42,0-73.71-20.06-75.95-21.58H1.38l-1.38-30.72H42.81l.14,.13c.07,.06,6.9,6.42,19.41,12.76,11.54,5.85,30.41,12.88,54.77,13.16,23.27,.27,42.54-7.29,54.61-13.68,13.09-6.93,20.77-14.02,20.85-14.09l.14-.13h42.78l.54,28.87h-36.66c-2.41,1.67-37.28,25.27-83.85,25.27ZM2.32,227.44H39.9l.13,.09c.3,.22,30.94,21.49,75.51,21.49,47.7,0,83.06-24.92,83.41-25.17l.13-.09h35.98l-.51-26.92h-41.44c-1.12,1.01-8.67,7.62-20.88,14.09-12.18,6.45-31.62,14.09-55.11,13.81-24.57-.29-43.6-7.38-55.23-13.29-11.62-5.89-18.4-11.81-19.45-12.77H1.02l1.29,28.76Z"/><path class="cls-2" d="M15.01,249.21L1.48,227.96l38.8,.27,12.7,20.44-37.98,.54Zm-11.74-20.26l12.27,19.28,35.71-.51-11.51-18.51-36.47-.26Z"/><path class="cls-2" d="M223.36,246.05h-36.29l12.24-21.5h36.29l-12.24,21.5Zm-34.61-.98h34.04l11.13-19.55h-34.04l-11.13,19.55Z"/><g><path class="cls-2" d="M39.5,214.03l-2.48,2.16-1.13-.67,7.97-6.83,1.32,.79-2.21,10.26-1.17-.7,.7-3.23-3-1.79Zm3.29,.79l.64-2.95c.14-.67,.32-1.25,.49-1.82h-.03c-.43,.42-.88,.85-1.35,1.28l-2.3,1.98,2.55,1.52Z"/><path class="cls-2" d="M49.42,211.94l1.11,.61-4.26,7.78,3.69,2.02-.52,.95-4.8-2.63,4.78-8.73Z"/><path class="cls-2" d="M56.73,215.84l-4.55,8.85-1.13-.58,4.55-8.85,1.13,.58Z"/><path class="cls-2" d="M63.94,225.48c.52-1.29,1.14-2.84,1.67-3.96l-.04-.02c-.79,.92-1.69,1.87-2.71,2.91l-3.6,3.65-.88-.4,.54-4.97c.16-1.47,.34-2.8,.59-3.99h-.03c-.55,1.1-1.31,2.58-2.02,3.9l-2.03,3.76-1.1-.51,4.8-8.74,1.47,.68-.49,5.07c-.14,1.28-.3,2.42-.5,3.46l.04,.02c.65-.81,1.42-1.65,2.35-2.61l3.61-3.63,1.47,.68-3.62,9.29-1.13-.52,1.61-4.07Z"/><path class="cls-2" d="M70.63,222.22l-2.12,5.49c-.8,2.08-.23,3.31,.99,3.79,1.36,.53,2.59-.04,3.38-2.1l2.12-5.49,1.2,.46-2.09,5.41c-1.1,2.85-3.04,3.45-5.03,2.68-1.88-.73-2.88-2.36-1.76-5.24l2.11-5.47,1.2,.46Z"/><path class="cls-2" d="M78.32,225.09l1.21,.39-2.74,8.44,4,1.3-.33,1.02-5.21-1.69,3.07-9.46Z"/><path class="cls-2" d="M84.92,227.17l1.23,.33-2.3,8.57,4.06,1.09-.28,1.04-5.29-1.42,2.58-9.61Z"/><path class="cls-2" d="M91.79,235.93l-1.62,2.87-1.29-.26,5.25-9.09,1.5,.3,1.32,10.42-1.33-.27-.41-3.28-3.42-.69Zm3.36-.35l-.38-3c-.09-.68-.11-1.29-.14-1.88h-.03c-.26,.54-.54,1.11-.84,1.66l-1.52,2.63,2.91,.59Z"/><path class="cls-2" d="M101.55,230.77l-.5,4.13,4.73,.57,.5-4.13,1.28,.15-1.19,9.88-1.28-.15,.56-4.63-4.73-.57-.56,4.63-1.26-.15,1.19-9.88,1.26,.15Z"/><path class="cls-2" d="M121.17,237.33c-.09-1.39-.2-3.05-.2-4.29h-.04c-.32,1.17-.72,2.42-1.2,3.79l-1.68,4.85h-.96l-1.65-4.71c-.48-1.4-.89-2.68-1.19-3.85h-.03c-.01,1.24-.07,2.91-.14,4.4l-.21,4.27h-1.21l.57-9.94,1.62-.02,1.74,4.79c.42,1.22,.77,2.31,1.03,3.34h.04c.24-1.01,.57-2.1,1-3.36l1.69-4.83,1.62-.02,.73,9.94h-1.24l-.3-4.35Z"/><path class="cls-2" d="M130.06,236.22l-3.8,.41,.38,3.57,4.24-.45,.12,1.07-5.5,.59-1.06-9.89,5.29-.57,.11,1.07-4.02,.43,.34,3.13,3.8-.41,.11,1.06Z"/><path class="cls-2" d="M131.5,230.85c.74-.26,1.62-.53,2.61-.72,1.79-.35,3.15-.18,4.15,.45,1.02,.63,1.74,1.66,2.05,3.24,.31,1.59,.08,2.99-.65,4.07-.72,1.09-2.12,1.87-4,2.24-.89,.17-1.64,.28-2.29,.33l-1.88-9.61Zm2.94,8.39c.33,0,.79-.08,1.28-.17,2.67-.52,3.82-2.31,3.3-4.95-.44-2.31-2.01-3.52-4.65-3-.65,.13-1.12,.28-1.44,.42l1.51,7.71Z"/><path class="cls-2" d="M142.19,228.35l2.57,9.61-1.23,.33-2.57-9.61,1.23-.33Z"/><path class="cls-2" d="M153.9,234.75c-.37,.37-1.18,.89-2.32,1.27-2.63,.87-5.17-.15-6.2-3.24-.98-2.96,.34-5.62,3.23-6.58,1.16-.39,1.98-.38,2.36-.32l.04,1.09c-.53-.07-1.24-.02-2.02,.23-2.19,.73-3.18,2.63-2.35,5.1,.77,2.31,2.58,3.36,4.85,2.6,.73-.24,1.43-.65,1.84-1.05l.57,.88Z"/><path class="cls-2" d="M156.47,230.69l.29,3.28-1.21,.52-.84-10.46,1.41-.6,7,7.83-1.25,.53-2.2-2.46-3.21,1.37Zm2.57-2.19l-2.01-2.25c-.46-.51-.82-1-1.18-1.47h-.03c.1,.61,.19,1.23,.25,1.86l.25,3.03,2.73-1.17Z"/><path class="cls-2" d="M160.46,221.44l1.13-.58,4.06,7.89,3.74-1.92,.49,.96-4.87,2.51-4.55-8.85Z"/><path class="cls-2" d="M180.32,221.06c-.27,.45-.93,1.15-1.94,1.79-2.34,1.49-5.06,1.11-6.8-1.65-1.67-2.63-1.03-5.53,1.54-7.17,1.04-.66,1.83-.85,2.21-.88l.3,1.05c-.53,.06-1.21,.28-1.9,.71-1.95,1.24-2.45,3.32-1.05,5.52,1.3,2.06,3.31,2.63,5.34,1.35,.65-.41,1.23-.97,1.53-1.46l.77,.72Z"/><path class="cls-2" d="M185.87,211.19c2.02,2.76,1.43,5.44-.6,6.93-2.1,1.54-4.77,.97-6.55-1.46-1.86-2.55-1.52-5.36,.61-6.92,2.17-1.59,4.8-.93,6.54,1.45Zm-6.07,4.64c1.25,1.72,3.3,2.58,4.91,1.4,1.63-1.19,1.44-3.38,.11-5.2-1.17-1.6-3.21-2.66-4.92-1.41-1.7,1.24-1.39,3.45-.1,5.21Z"/><path class="cls-2" d="M7.29,214.31c.55,.34,1.36,.63,2.22,.63,1.26,0,2-.67,2-1.63,0-.9-.51-1.41-1.8-1.9-1.56-.55-2.53-1.36-2.53-2.71,0-1.49,1.24-2.6,3.1-2.6,.98,0,1.69,.23,2.12,.47l-.34,1.01c-.31-.17-.95-.45-1.82-.45-1.31,0-1.8,.78-1.8,1.44,0,.89,.58,1.34,1.9,1.85,1.62,.63,2.44,1.41,2.44,2.81,0,1.48-1.09,2.76-3.35,2.76-.92,0-1.93-.27-2.44-.61l.31-1.04Z"/><path class="cls-2" d="M16.04,206.24v9.58h-1.24v-9.58h1.24Z"/><path class="cls-2" d="M18.54,206.37c.63-.13,1.52-.2,2.37-.2,1.32,0,2.17,.24,2.77,.78,.48,.43,.75,1.08,.75,1.82,0,1.26-.8,2.1-1.8,2.44v.04c.74,.26,1.18,.94,1.41,1.93,.31,1.34,.54,2.26,.74,2.63h-1.28c-.16-.27-.37-1.09-.64-2.29-.28-1.32-.8-1.82-1.92-1.86h-1.17v4.15h-1.24v-9.45Zm1.24,4.36h1.26c1.32,0,2.16-.72,2.16-1.82,0-1.24-.9-1.78-2.2-1.79-.6,0-1.02,.06-1.22,.11v3.5Z"/><path class="cls-2" d="M29.72,214.31c.55,.34,1.36,.63,2.22,.63,1.26,0,2-.67,2-1.63,0-.9-.51-1.41-1.8-1.9-1.56-.55-2.53-1.36-2.53-2.71,0-1.49,1.24-2.6,3.1-2.6,.98,0,1.69,.23,2.12,.47l-.34,1.01c-.31-.17-.95-.45-1.82-.45-1.31,0-1.8,.78-1.8,1.44,0,.89,.58,1.34,1.9,1.85,1.62,.63,2.44,1.41,2.44,2.81,0,1.48-1.09,2.76-3.35,2.76-.92,0-1.93-.27-2.44-.61l.31-1.04Z"/><path class="cls-2" d="M189.28,204.13h1.24v8.54h4.09v1.04h-5.33v-9.58Z"/><path class="cls-2" d="M196.46,204.13h1.24v8.54h4.09v1.04h-5.33v-9.58Z"/><path class="cls-2" d="M208.59,209.22h-3.72v3.45h4.15v1.04h-5.38v-9.58h5.17v1.04h-3.94v3.03h3.72v1.02Z"/><path class="cls-2" d="M218.38,213.28c-.55,.2-1.65,.53-2.94,.53-1.45,0-2.64-.37-3.58-1.26-.82-.8-1.34-2.07-1.34-3.57,.01-2.86,1.97-4.94,5.19-4.94,1.11,0,1.97,.24,2.39,.44l-.3,1.01c-.51-.23-1.15-.41-2.12-.41-2.33,0-3.85,1.45-3.85,3.85s1.46,3.86,3.69,3.86c.81,0,1.36-.11,1.65-.26v-2.86h-1.95v-.99h3.15v4.6Z"/><path class="cls-2" d="M225.7,209.22h-3.72v3.45h4.15v1.04h-5.38v-9.58h5.17v1.04h-3.94v3.03h3.72v1.02Z"/></g><path class="cls-2" d="M116.16,163.37c-30.74,0-55.76-25.01-55.76-55.76s25.01-55.76,55.76-55.76,58.04,25.55,58.04,55.8-26.58,55.71-58.04,55.71Zm0-110.54c-30.21,0-54.78,24.57-54.78,54.78s24.57,54.78,54.78,54.78,57.06-25.07,57.06-54.74-26.13-54.82-57.06-54.82Z"/><path class="cls-2" d="M116.33,174.99c-18.57,0-36.06-6.88-49.25-19.39-13.36-12.67-20.72-29.7-20.72-47.95s7.33-35.67,20.63-48.76c13.25-13.03,30.71-20.2,49.17-20.2,38,0,68.92,30.92,68.92,68.92,0,18.33-7.14,35.36-20.1,47.97-12.87,12.52-30.15,19.41-48.64,19.41Zm-.18-135.32c-37.95,0-68.82,30.5-68.82,67.98s30.95,66.36,68.99,66.36,67.76-29.17,67.76-66.4-30.48-67.94-67.94-67.94Z"/><path class="cls-2" d="M116.16,187.58c-44.87,0-81.37-35.85-81.37-79.93,0-21.45,8.53-41.67,24.02-56.94,15.43-15.22,35.8-23.6,57.35-23.6,44.38,0,80.49,36.11,80.49,80.5,0,21.47-8.37,41.59-23.58,56.66-15.17,15.03-35.38,23.31-56.92,23.31Zm0-159.49c-44.33,0-80.4,35.69-80.4,79.56s36.07,78.95,80.4,78.95,79.52-35.44,79.52-78.99S160,28.09,116.16,28.09Z"/><path class="cls-1" d="M103.44,132.26c-7.37-5.26-5.26-16.32-3.68-20.53s4.21-9.47,4.21-22.63c0-9.81-4.39-17.86-6.62-21.33-15.01,7.07-25.93,22.33-25.93,40.01,0,21.02,15.19,38.59,34.85,43.09-4.41-5.51-2.83-18.61-2.83-18.61Z"/><path class="cls-1" d="M122.4,63.56c14.49,13.22,13.63,25.86,7.88,34.49-6.32,9.47-5.26,20.53-4.74,24.21s4.74,7.9,3.68,16.84c-.62,5.3-2.72,9.49-4.33,12.03,20.23-4.06,37.06-21.92,37.06-43.35s-18.34-40.97-39.55-44.22Z"/><path class="cls-2" d="M133.93,51.34l.16,.1-3.21-8.79,3.14-4.71,.06-.09h-7.98c-4.91-4.89-9.81-5.35-13.06-4.87-3.53,.52-5.92,2.23-5.95,2.25-.03,.02-3.07,2.14-6.06,5.4-2.77,3.01-6.07,7.63-6.07,12.55,0,9.06,4.45,12.98,11.81,19.48,.78,.69,1.59,1.4,2.42,2.15,6.32,5.66,9.26,10.99,9,16.31-.26,5.38-3.82,10.09-6.9,13.6-.62,.7-1.2,1.36-1.75,1.98-6.01,6.76-8.04,9.04-2.46,17.04l.68,.98c10.36,14.85,10.76,15.43,5.64,21.58-2.59,3.11-3.74,5.81-3.62,8.49,.14,3.15,2.08,6.27,5.91,9.55,7.98,6.82,15.55,11.48,15.62,11.53l.07-.1-16.82-13.67-.29-9.76c.44-.41,7.66-7.26,7.66-13.37s-6.69-12.46-7.11-12.84l-.26-14.88c1-1.23,1.92-2.34,2.74-3.33,6.14-7.4,7.79-9.38,7.79-20.53,0-6.54-3.07-12.02-5.65-15.46-2.65-3.55-5.34-5.72-5.62-5.94l-.09-16.82,9.71-4.86,10.5,7.04Zm-18.59-10.01c0-.84,.68-1.52,1.52-1.52s1.52,.68,1.52,1.52-.68,1.52-1.52,1.52-1.52-.68-1.52-1.52Z"/><path class="cls-2" d="M110.79,0c-2.75,0-6.05,3.3-6.05,12.1,0,4.74,1.91,8.2,3.68,10.38l5.34,184.41c.01,.4,.34,.71,.73,.71h.01c.4,0,.72-.34,.72-.74l-.97-184.03c1.57-1.9,3.21-5.09,3.29-10.16,.15-9.86-4-12.69-6.75-12.69Z"/><g><path class="cls-2" d="M186.57,39.88v-7.18c0-.42,.47-.67,.82-.43,1.69,1.17,5.44,4.05,5.82,6.92,.49,3.73-.85,8.63-6.88,7.94-5.48-.62-7.37-2.63-9.35-5.5-.25-.36-.05-.84,.38-.86l8.2,.17c.56-.03,1-.49,1-1.05Z"/><path class="cls-2" d="M146.34,188.65c.25-.43-.18-.94-.64-.76-3.25,1.27-11.47,5.68-11.47,13.98,0,10.26,13.74,11.77,19.8,1.62,.21-.35-.04-.81-.45-.8-2.15,.02-7.5-.19-9.61-2.66-2.41-2.81,.91-8.9,2.37-11.38Z"/><path class="cls-2" d="M164.44,176.72c.07-.17-.12-.33-.27-.22-2.7,1.99-15.64,10.12-10.47,18.53,4.21,6.84,15.32,.29,20.89-2.65,.37-.19,.23-.74-.18-.75-2.51-.06-8.07,.77-10.18-1.86-2.43-3.04-1.01-10.26,.21-13.04Z"/><path class="cls-2" d="M180.26,168.17c.04-.54-.66-.78-.96-.33-2.09,3.13-6.79,11.06-4.01,15.09,4.74,6.84,11.81,3.07,20.32-5.76,.39-.4-.03-1.06-.55-.87-2.84,1.03-8.9,3.43-12.14,1.63s-2.87-7.15-2.66-9.75Z"/><path class="cls-2" d="M194.86,150.09c-.04-.54-.77-.68-1-.19-1.32,2.75-3.54,8.41-2.79,14.08,1.05,7.9,4.98,7.47,11.58,2.63,3.43-2.51,7.12-7.81,8.86-11.57,.22-.48-.32-.95-.76-.66-2.39,1.55-6.84,4.46-9.94,4.07-3.84-.48-5.49-2.27-5.95-8.36Z"/><path class="cls-2" d="M203.77,130.58c-.17-.51-.91-.48-1.02,.05-.98,4.81-2.82,18.23,3.54,20.51,7.42,2.65,14.93-10.23,15.32-16.03,.03-.45-.48-.72-.84-.45-1.49,1.13-6.22,5.27-9.96,4.84-4.52-.52-5.51-4.18-7.05-8.92Z"/><path class="cls-2" d="M206.76,110.4c-.32-.38-.95-.15-.93,.35,.14,4.24,2.33,17.53,10.51,17.96,8.46,.45,8.08-12.73,7.1-17.6-.1-.52-.82-.58-1.01-.08-.67,1.78-1.09,5.31-5.3,5.84-3.83,.48-7.01-2.46-10.37-6.47Z"/><path class="cls-2" d="M207.14,95.04c-.36-.24-.82,.03-.81,.46,.05,2.15,1.33,8.17,5.25,11.85s6.73,1.08,8.38-2.99c1.52-3.76,1.64-8.69-.43-12.17-.22-.37-.77-.33-.94,.06-.75,1.71-2.1,5.91-4.88,6.46-2.63,.53-4.96-2.6-6.57-3.67Z"/><path class="cls-2" d="M203.22,78.77c-.42-.22-.88,.18-.74,.62,.9,2.85,4.39,11.42,9.66,10.89,7.87-.79,7.71-9.15,1.86-16.99-.28-.38-.89-.22-.95,.25-.26,2.09-.74,7.18-1.97,7.8-1.45,.73-5.45-1.31-7.86-2.57Z"/><path class="cls-2" d="M206.28,58.76c.05-.51,.73-.65,.98-.2,1.48,2.6,5.92,9.1,.4,13.57-5.12,4.14-11.48-2.84-13.55-6.44-.26-.46,.23-.97,.7-.73,2.01,1.06,6.6,2.93,9.69,1.38,2.05-1.03,1.61-5.82,1.78-7.58Z"/><path class="cls-2" d="M195.87,51.3l.26-7.22c.02-.42,.5-.66,.84-.41,2.14,1.6,7.63,6.49,4.63,12.92s-11.94-1.06-14.86-3.79c-.36-.34-.1-.94,.39-.91l7.07,.92c.89,.05,1.64-.63,1.67-1.52Z"/><path class="cls-2" d="M173.91,27.89l-1.89-7.69c-.06-.47,.48-.77,.85-.48,2.2,1.75,8.24,7.34,7.42,11.88-1.05,5.79-7.37,3.63-7.37,3.63,0,0-4.3-1.95-7.76-5.12-.35-.32-.13-.9,.34-.92l7.4-.19c.59-.02,1.05-.52,1.02-1.11Z"/><path class="cls-2" d="M160.24,20.07l-4.59,2.18c-.79,.49-.61,1.69,.29,1.92,1.5,.38,4.76,.99,7.24,.86,2.23-.12,4.11-.79,4.99-1.19s1.35-1.33,1.18-2.27c-.26-1.46-1.43-3.38-3.54-5.49-1.33-1.33-3.95-3.25-5.09-3.96-.82-.51-1.83,.26-1.56,1.19l2.01,4.4c.26,.91-.12,1.88-.92,2.37Z"/><path class="cls-2" d="M141.39,13.65c-.36-.42-.33-1.05,.06-1.44,1.28-1.23,4.34-4.04,8.3-2.46,3.62,1.45,5.77,3.17,6.44,3.78,.27,.24,.39,.61,.32,.96-.23,1.22-.47,4.62-2.55,4.21-2.52-.5-8.16,.11-12.57-5.05Z"/></g><g><path class="cls-2" d="M41.79,39.88v-7.18c0-.42-.47-.67-.82-.43-1.69,1.17-5.44,4.05-5.82,6.92-.49,3.73,.85,8.63,6.88,7.94,5.48-.62,7.37-2.63,9.35-5.5,.25-.36,.05-.84-.38-.86l-8.2,.17c-.56-.03-1-.49-1-1.05Z"/><path class="cls-2" d="M82.52,188.65c-.25-.43,.18-.94,.64-.76,3.25,1.27,11.47,5.68,11.47,13.98,0,10.26-13.74,11.77-19.8,1.62-.21-.35,.04-.81,.45-.8,2.15,.02,7.5-.19,9.61-2.66,2.41-2.81-.91-8.9-2.37-11.38Z"/><path class="cls-2" d="M63.9,176.72c-.07-.17,.12-.33,.27-.22,2.7,1.99,15.64,10.12,10.47,18.53-4.21,6.84-15.32,.29-20.89-2.65-.37-.19-.23-.74,.18-.75,2.51-.06,8.07,.77,10.18-1.86,2.43-3.04,1.01-10.26-.21-13.04Z"/><path class="cls-2" d="M48.34,168.17c-.04-.54,.66-.78,.96-.33,2.09,3.13,6.79,11.06,4.01,15.09-4.74,6.84-11.81,3.07-20.32-5.76-.39-.4,.03-1.06,.55-.87,2.84,1.03,8.9,3.43,12.14,1.63s2.87-7.15,2.66-9.75Z"/><path class="cls-2" d="M33.93,150.09c.04-.54,.77-.68,1-.19,1.32,2.75,3.54,8.41,2.79,14.08-1.05,7.9-4.98,7.47-11.58,2.63-3.43-2.51-7.12-7.81-8.86-11.57-.22-.48,.32-.95,.76-.66,2.39,1.55,6.84,4.46,9.94,4.07,3.84-.48,5.49-2.27,5.95-8.36Z"/><path class="cls-2" d="M25.35,130.58c.17-.51,.91-.48,1.02,.05,.98,4.81,2.82,18.23-3.54,20.51-7.42,2.65-14.93-10.23-15.32-16.03-.03-.45,.48-.72,.84-.45,1.49,1.13,6.22,5.27,9.96,4.84,4.52-.52,5.51-4.18,7.05-8.92Z"/><path class="cls-2" d="M21.94,110.4c.32-.38,.95-.15,.93,.35-.14,4.24-2.33,17.53-10.51,17.96-8.46,.45-8.08-12.73-7.1-17.6,.1-.52,.82-.58,1.01-.08,.67,1.78,1.09,5.31,5.3,5.84,3.83,.48,7.01-2.46,10.37-6.47Z"/><path class="cls-2" d="M21.84,94.52c.36-.24,.82,.03,.81,.46-.05,2.15-1.33,8.17-5.25,11.85s-6.73,1.08-8.38-2.99c-1.52-3.76-1.64-8.69,.43-12.17,.22-.37,.77-.33,.94,.06,.75,1.71,2.1,5.91,4.88,6.46,2.63,.53,4.96-2.6,6.57-3.67Z"/><path class="cls-2" d="M25.86,78.77c.42-.22,.88,.18,.74,.62-.9,2.85-4.39,11.42-9.66,10.89-7.87-.79-7.71-9.15-1.86-16.99,.28-.38,.89-.22,.95,.25,.26,2.09,.74,7.18,1.97,7.8,1.45,.73,5.45-1.31,7.86-2.57Z"/><path class="cls-2" d="M22.3,58.76c-.05-.51-.73-.65-.98-.2-1.48,2.6-5.92,9.1-.4,13.57,5.12,4.14,11.48-2.84,13.55-6.44,.26-.46-.23-.97-.7-.73-2.01,1.06-6.6,2.93-9.69,1.38-2.05-1.03-1.61-5.82-1.78-7.58Z"/><path class="cls-2" d="M32.64,51.3l-.26-7.22c-.02-.42-.5-.66-.84-.41-2.14,1.6-7.63,6.49-4.63,12.92s11.94-1.06,14.86-3.79c.36-.34,.1-.94-.39-.91l-7.07,.92c-.89,.05-1.64-.63-1.67-1.52Z"/><path class="cls-2" d="M54.58,27.89l1.89-7.69c.06-.47-.48-.77-.85-.48-2.2,1.75-8.24,7.34-7.42,11.88,1.05,5.79,7.37,3.63,7.37,3.63,0,0,4.3-1.95,7.76-5.12,.35-.32,.13-.9-.34-.92l-7.4-.19c-.59-.02-1.05-.52-1.02-1.11Z"/><path class="cls-2" d="M68.49,20.07l4.59,2.18c.79,.49,.61,1.69-.29,1.92-1.5,.38-4.76,.99-7.24,.86-2.23-.12-4.11-.79-4.99-1.19s-1.35-1.33-1.18-2.27c.26-1.46,1.43-3.38,3.54-5.49,1.33-1.33,3.95-3.25,5.09-3.96,.82-.51,1.83,.26,1.56,1.19l-2.01,4.4c-.26,.91,.12,1.88,.92,2.37Z"/><path class="cls-2" d="M87.85,13.65c.36-.42,.33-1.05-.06-1.44-1.28-1.23-4.34-4.04-8.3-2.46-3.62,1.45-5.77,3.17-6.44,3.78-.27,.24-.39,.61-.32,.96,.23,1.22,.47,4.62,2.55,4.21,2.52-.5,8.16,.11,12.57-5.05Z"/></g></svg>